HIERARCHY
ROOT Hips
{
	OFFSET	0.00	0.00	0.00
	CHANNELS 6 Xposition Yposition Zposition Zrotation Xrotation Yrotation
	JOINT LeftUpLeg
	{
		OFFSET	 0.126116	-0.014019	-0.065224
		CHANNELS 3 Zrotation Xrotation Yrotation
		JOINT LeftLeg
		{
			OFFSET	 0.000000	 0.000000	 0.569914
			CHANNELS 3 Zrotation Xrotation Yrotation
			JOINT LeftFoot
			{
				OFFSET	 0.000000	 0.000000	 0.544423
				CHANNELS 3 Zrotation Xrotation Yrotation
				JOINT LeftToeBase
				{
					OFFSET	 0.000000	 0.000000	 0.207117
					CHANNELS 3 Zrotation Xrotation Yrotation
					End Site
					{
						OFFSET	 0.000000	 0.000000	 0.207117
					}
				}
			}
		}
	}
	JOINT RightUpLeg
	{
		OFFSET	-0.124023	-0.008373	-0.065224
		CHANNELS 3 Zrotation Xrotation Yrotation
		JOINT RightLeg
		{
			OFFSET	 0.000000	 0.000000	 0.570047
			CHANNELS 3 Zrotation Xrotation Yrotation
			JOINT RightFoot
			{
				OFFSET	 0.000000	 0.000000	 0.544354
				CHANNELS 3 Zrotation Xrotation Yrotation
				JOINT RightToeBase
				{
					OFFSET	 0.000000	 0.000000	 0.207540
					CHANNELS 3 Zrotation Xrotation Yrotation
					End Site
					{
						OFFSET	 0.000000	 0.000000	 0.207540
					}
				}
			}
		}
	}
	JOINT Spine
	{
		OFFSET	 0.000184	-0.007763	 0.117403
		CHANNELS 3 Zrotation Xrotation Yrotation
		JOINT Spine1
		{
			OFFSET	 0.000000	 0.000000	 0.137269
			CHANNELS 3 Zrotation Xrotation Yrotation
			JOINT Spine2
			{
				OFFSET	 0.000000	 0.000000	 0.156879
				CHANNELS 3 Zrotation Xrotation Yrotation
				JOINT LeftShoulder
				{
					OFFSET	 0.080501	-0.002496	 0.160144
					CHANNELS 3 Zrotation Xrotation Yrotation
					JOINT LeftArm
					{
						OFFSET	 0.000000	 0.000000	 0.164363
						CHANNELS 3 Zrotation Xrotation Yrotation
						JOINT LeftForeArm
						{
							OFFSET	 0.000000	 0.000000	 0.364576
							CHANNELS 3 Zrotation Xrotation Yrotation
							JOINT LeftHand
							{
								OFFSET	 0.000000	 0.000000	 0.360812
								CHANNELS 3 Zrotation Xrotation Yrotation
								JOINT LeftHandIndex1
								{
									OFFSET	 0.000000	 0.000000	 0.086006
									CHANNELS 3 Zrotation Xrotation Yrotation
									JOINT LeftHandIndex2
									{
										OFFSET	 0.000000	 0.000000	 0.047236
										CHANNELS 3 Zrotation Xrotation Yrotation
										JOINT LeftHandIndex3
										{
											OFFSET	-0.004284	-0.000551	 0.038166
											CHANNELS 3 Zrotation Xrotation Yrotation
											End Site
											{
												OFFSET	-0.004284	-0.000551	 0.038166
											}
										}
									}
								}
							}
						}
					}
				}
				JOINT Neck
				{
					OFFSET	 0.000000	 0.000000	 0.176489
					CHANNELS 3 Zrotation Xrotation Yrotation
					JOINT Head
					{
						OFFSET	 0.000000	-0.001747	 0.077940
						CHANNELS 3 Zrotation Xrotation Yrotation
						End Site
						{
							OFFSET	 0.000000	-0.001747	 0.077940
						}
					}
				}
				JOINT RightShoulder
				{
					OFFSET	-0.080363	 0.000306	 0.159706
					CHANNELS 3 Zrotation Xrotation Yrotation
					JOINT RightArm
					{
						OFFSET	 0.000000	 0.000000	 0.164196
						CHANNELS 3 Zrotation Xrotation Yrotation
						JOINT RightForeArm
						{
							OFFSET	 0.000000	 0.000000	 0.365611
							CHANNELS 3 Zrotation Xrotation Yrotation
							JOINT RightHand
							{
								OFFSET	 0.000000	 0.000000	 0.360648
								CHANNELS 3 Zrotation Xrotation Yrotation
								JOINT RightHandIndex1
								{
									OFFSET	 0.000000	 0.000000	 0.069977
									CHANNELS 3 Zrotation Xrotation Yrotation
									JOINT RightHandIndex2
									{
										OFFSET	 0.000000	 0.000000	 0.052305
										CHANNELS 3 Zrotation Xrotation Yrotation
										JOINT RightHandIndex3
										{
											OFFSET	 0.009002	-0.000782	 0.042196
											CHANNELS 3 Zrotation Xrotation Yrotation
											End Site
											{
												OFFSET	 0.009002	-0.000782	 0.042196
											}
										}
									}
								}
							}
						}
					}
				}
			}
		}
	}
}
MOTION
Frames:    6
Frame Time: 0.03333334
-6.470976	-26.857680	 1.008866	-26.238780	 17.343940	 3.760533	 3.518093	-34.866780	 175.366700	-1.302700	-43.088600	-0.321705	-0.735324	 80.880490	 0.521186	-2.352380	 34.156560	-0.128758	-0.735810	-36.062890	-179.511600	-2.988790	-43.100360	-0.959695	-1.602545	 81.130180	 0.501890	 2.406693	 19.808740	-0.176895	 34.532030	 15.439120	 2.383993	-7.646554	 2.784963	-1.672712	-9.874090	-2.925508	-0.905759	-125.674200	 89.281270	-141.890700	 55.118750	 65.959730	-61.547400	 28.331310	-21.234070	-22.571890	-1.020103	 5.116604	-5.392605	-5.666931	-12.235340	-1.336599	-5.213516	-0.193813	 3.566525	-1.378229	 35.397820	-2.634230	 0.808480	 0.136703	-3.810457	-2.403807	-6.971680	 0.908520	 93.698440	 85.946330	 172.012000	-61.434270	 74.834630	 70.902370	-43.523790	-37.060170	 20.150010	-25.616170	 4.051552	 9.588035	-9.914101	-10.016880	-38.909500	 5.070815	-0.697434	-9.399699	-2.350882	 35.473990	 5.254307
-6.474684	-26.871270	 1.009480	-26.099460	 17.979520	 3.792071	 3.605872	-34.953430	 175.560900	-1.900702	-43.150050	-0.684535	-0.950121	 81.554340	 0.298424	-2.352750	 34.106900	-0.127575	-0.772192	-35.774590	-179.396400	-2.681539	-42.635990	-0.777257	-1.575143	 82.232800	 0.743059	 2.405849	 20.646970	-0.160235	 34.253550	 15.155950	 2.183490	-7.617517	 2.511567	-1.782879	-9.944609	-3.279239	-0.942810	-124.354200	 89.251920	-143.177800	 59.215210	 67.111050	-62.968930	 31.189060	-21.103540	-20.938400	-0.471129	 5.121707	-5.389667	-5.311948	-11.870340	-0.541939	-5.213516	-0.193813	 3.566525	-1.378229	 35.397820	-2.634230	 0.747458	-0.080415	-3.659190	-2.480563	-7.466299	 0.920868	 93.677220	 85.982730	 172.110200	-56.439370	 77.218190	 64.002770	-47.099070	-32.857390	 15.752200	-27.405880	 4.092111	 9.585752	-9.434440	-9.057435	-38.472430	 5.070815	-0.697434	-9.399699	-2.350882	 35.473990	 5.254307
-6.477885	-26.881870	 1.009554	-26.188640	 18.418040	 3.833410	 3.558824	-34.977170	 175.621900	-2.061256	-43.429810	-0.833868	-1.045439	 82.071720	 0.215581	-2.347021	 34.860000	-0.145511	-0.748421	-35.489040	-179.457300	-2.417499	-42.366710	-0.586419	-1.490839	 82.920420	 0.913485	 2.405024	 21.284770	-0.147485	 33.670070	 14.934170	 2.102641	-7.519633	 2.260226	-1.817591	-9.984126	-3.575226	-0.972236	-121.727800	 89.186030	-145.737400	 62.178560	 67.863000	-64.001790	 33.240010	-20.893610	-19.809030	 0.087996	 5.129544	-5.385647	-4.768722	-11.349360	 0.694999	-5.213516	-0.193813	 3.566525	-1.378229	 35.397820	-2.634230	 0.740152	-0.326675	-3.498188	-2.565628	-7.865651	 0.748314	 93.667520	 86.037350	 172.211100	-49.434210	 78.956050	 55.242860	-48.938790	-30.486020	 13.567510	-28.811420	 4.110191	 9.556697	-9.072195	-8.293218	-38.161150	 5.070815	-0.697434	-9.399699	-2.350882	 35.473990	 5.254307
-6.481101	-26.892550	 1.009849	-26.491700	 18.805190	 3.916351	 3.547688	-34.910850	 175.652100	-2.123223	-43.694230	-0.896267	-1.100116	 82.455090	 0.196405	-2.339412	 35.796370	-0.168173	-0.730922	-35.259930	-179.561100	-2.290750	-42.202660	-0.490835	-1.449004	 83.296790	 1.002447	 2.404691	 21.516290	-0.142840	 32.569130	 14.719290	 1.986398	-7.365026	 1.957961	-1.726719	-9.961233	-3.909313	-0.998887	-117.035700	 89.047970	-150.370900	 64.600840	 68.692180	-64.634820	 34.614840	-20.524830	-18.878530	 0.558874	 5.146096	-5.381630	-4.183892	-10.753880	 2.051288	-5.213516	-0.193813	 3.566525	-1.378229	 35.397820	-2.634230	 0.815563	-0.526766	-3.327634	-2.608334	-8.329727	 0.766680	 93.864120	 86.227630	 172.106700	-40.368600	 80.211860	 44.517670	-49.842800	-28.624960	 12.233170	-29.836460	 4.133949	 9.527159	-8.814075	-7.677003	-37.985590	 5.070815	-0.697434	-9.399699	-2.350882	 35.473990	 5.254307
-6.483634	-26.901680	 1.011042	-26.836860	 19.187030	 3.951651	 3.572859	-34.800240	 175.726900	-2.315811	-43.651350	-1.016638	-1.172733	 82.498500	 0.134986	-2.333023	 36.535890	-0.186374	-0.777797	-35.336910	-179.518100	-2.464689	-42.136670	-0.636165	-1.563363	 83.366970	 0.958953	 2.404601	 21.576080	-0.141637	 30.940830	 14.469790	 1.844276	-7.262534	 1.707180	-1.552964	-9.888066	-4.170805	-1.013957	-111.633100	 88.834830	-155.789000	 66.155080	 69.395780	-64.925880	 34.930190	-20.028060	-18.320490	 0.729036	 5.166024	-5.379548	-3.974136	-10.628170	 2.545156	-5.213516	-0.193813	 3.566525	-1.378229	 35.397820	-2.634230	 0.897902	-0.599426	-3.072980	-2.568539	-8.683027	 0.917981	 94.236510	 86.475690	 171.777100	-32.687790	 80.720240	 35.519600	-49.859460	-27.448890	 11.726650	-30.248110	 4.161087	 9.506474	-8.714143	-7.570836	-37.822700	 5.070815	-0.697434	-9.399699	-2.350882	 35.473990	 5.254307
-6.485839	-26.908940	 1.012669	-27.157500	 19.526360	 3.908369	 3.575253	-34.785570	 175.769700	-2.552349	-43.498130	-1.172366	-1.244149	 82.337630	 0.037624	-2.327846	 37.105050	-0.200583	-0.849716	-35.420800	-179.365700	-2.638015	-42.075470	-0.796810	-1.693042	 83.404090	 0.911189	 2.404528	 21.624020	-0.140671	 28.996340	 14.254530	 1.811364	-7.196435	 1.527317	-1.394825	-9.803628	-4.350666	-1.020557	-108.770100	 88.676480	-158.680700	 67.102120	 69.804680	-65.243980	 35.099030	-19.518220	-17.875490	 1.260445	 5.184294	-5.374279	-3.857276	-10.886390	 2.821845	-5.213516	-0.193813	 3.566525	-1.378229	 35.397820	-2.634230	 0.953596	-0.751159	-2.814788	-2.489782	-8.760253	 1.118453	 94.637830	 86.676570	 171.363400	-27.579690	 80.813890	 29.472740	-49.607080	-26.814910	 11.607980	-30.603750	 4.190260	 9.493937	-8.657469	-7.626705	-37.647960	 5.070815	-0.697434	-9.399699	-2.350882	 35.473990	 5.254307
